<svg width="173" height="202" viewBox="0 0 173 202" fill="none" xmlns="http://www.w3.org/2000/svg">
    <path
        d="M78.7991 4.20941L8.35473 42.7154C3.20375 45.531 2.39395e-05 50.9334 2.25854e-05 56.8037L2.19626e-06 145.196C0 151.067 3.20374 156.469 8.35472 159.285L78.7991 197.791C83.598 200.414 89.402 200.414 94.2008 197.791L164.645 159.285C169.796 156.469 173 151.067 173 145.196L173 56.8037C173 50.9334 169.796 45.5311 164.645 42.7154L94.2008 4.2094C89.402 1.58628 83.598 1.58629 78.7991 4.20941Z"
        fill="#161B22" />
    <g filter="url(#filter0_d)">
        <path
            d="M132.608 102.2C132.608 98.2425 132.293 95.3546 131.61 92.3599H87.2489V110.221H113.288C112.763 114.66 109.928 121.345 103.628 125.837L103.54 126.435L117.566 137.503L118.538 137.602C127.463 129.206 132.608 116.853 132.608 102.2Z"
            fill="#4285F4" />
    </g>
    <g filter="url(#filter1_d)">
        <path
            d="M87.246 149.261C100.003 149.261 110.713 144.982 118.535 137.602L103.626 125.837C99.6357 128.671 94.2807 130.65 87.246 130.65C74.7514 130.65 64.1467 122.254 60.3664 110.649L59.8123 110.697L45.2276 122.195L45.0369 122.735C52.8066 138.458 68.7663 149.261 87.246 149.261Z"
            fill="#34A853" />
    </g>
    <g filter="url(#filter2_d)">
        <path
            d="M60.3693 110.649C59.3719 107.655 58.7946 104.446 58.7946 101.13C58.7946 97.8145 59.3719 94.606 60.3169 91.6112L60.2904 90.9734L45.5229 79.2909L45.0398 79.525C41.8375 86.0494 40 93.3761 40 101.13C40 108.885 41.8375 116.211 45.0398 122.735L60.3693 110.649Z"
            fill="#FBBC05" />
    </g>
    <g filter="url(#filter3_d)">
        <path
            d="M87.2461 71.6102C96.1183 71.6102 102.103 75.5141 105.516 78.7765L118.85 65.5139C110.661 57.7596 100.003 53 87.2461 53C68.7663 53 52.8066 63.8025 45.0369 79.5249L60.314 91.6111C64.1467 80.0064 74.7514 71.6102 87.2461 71.6102Z"
            fill="#EB4335" />
    </g>
    <defs>
        <filter id="filter0_d" x="55.2489" y="60.3599" width="109.359" height="109.242" filterUnits="userSpaceOnUse"
            color-interpolation-filters="sRGB">
            <feFlood flood-opacity="0" result="BackgroundImageFix" />
            <feColorMatrix in="SourceAlpha" type="matrix" values="0 0 0 0 0 0 0 0 0 0 0 0 0 0 0 0 0 0 127 0" />
            <feOffset />
            <feGaussianBlur stdDeviation="16" />
            <feColorMatrix type="matrix" values="0 0 0 0 0.670588 0 0 0 0 0.803922 0 0 0 0 1 0 0 0 0.3 0" />
            <feBlend mode="normal" in2="BackgroundImageFix" result="effect1_dropShadow" />
            <feBlend mode="normal" in="SourceGraphic" in2="effect1_dropShadow" result="shape" />
        </filter>
        <filter id="filter1_d" x="13.0369" y="78.6494" width="137.498" height="102.611" filterUnits="userSpaceOnUse"
            color-interpolation-filters="sRGB">
            <feFlood flood-opacity="0" result="BackgroundImageFix" />
            <feColorMatrix in="SourceAlpha" type="matrix" values="0 0 0 0 0 0 0 0 0 0 0 0 0 0 0 0 0 0 127 0" />
            <feOffset />
            <feGaussianBlur stdDeviation="16" />
            <feColorMatrix type="matrix" values="0 0 0 0 0.258824 0 0 0 0 0.956863 0 0 0 0 0.454275 0 0 0 0.3 0" />
            <feBlend mode="normal" in2="BackgroundImageFix" result="effect1_dropShadow" />
            <feBlend mode="normal" in="SourceGraphic" in2="effect1_dropShadow" result="shape" />
        </filter>
        <filter id="filter2_d" x="8" y="47.2909" width="84.3693" height="107.444" filterUnits="userSpaceOnUse"
            color-interpolation-filters="sRGB">
            <feFlood flood-opacity="0" result="BackgroundImageFix" />
            <feColorMatrix in="SourceAlpha" type="matrix" values="0 0 0 0 0 0 0 0 0 0 0 0 0 0 0 0 0 0 127 0" />
            <feOffset />
            <feGaussianBlur stdDeviation="16" />
            <feColorMatrix type="matrix" values="0 0 0 0 0.937255 0 0 0 0 0.992157 0 0 0 0 0.305882 0 0 0 0.3 0" />
            <feBlend mode="normal" in2="BackgroundImageFix" result="effect1_dropShadow" />
            <feBlend mode="normal" in="SourceGraphic" in2="effect1_dropShadow" result="shape" />
        </filter>
        <filter id="filter3_d" x="13.0369" y="21" width="137.813" height="102.611" filterUnits="userSpaceOnUse"
            color-interpolation-filters="sRGB">
            <feFlood flood-opacity="0" result="BackgroundImageFix" />
            <feColorMatrix in="SourceAlpha" type="matrix" values="0 0 0 0 0 0 0 0 0 0 0 0 0 0 0 0 0 0 127 0" />
            <feOffset />
            <feGaussianBlur stdDeviation="16" />
            <feColorMatrix type="matrix" values="0 0 0 0 0.992157 0 0 0 0 0.305882 0 0 0 0 0.305882 0 0 0 0.3 0" />
            <feBlend mode="normal" in2="BackgroundImageFix" result="effect1_dropShadow" />
            <feBlend mode="normal" in="SourceGraphic" in2="effect1_dropShadow" result="shape" />
        </filter>
    </defs>
</svg>