<svg width="173" height="202" viewBox="0 0 173 202" fill="none" xmlns="http://www.w3.org/2000/svg">
    <g clip-path="url(#clip0)">
        <path
            d="M78.7991 4.20941L8.35473 42.7154C3.20375 45.531 2.39395e-05 50.9334 2.25854e-05 56.8037L2.19626e-06 145.196C0 151.067 3.20374 156.469 8.35472 159.285L78.7991 197.791C83.598 200.414 89.402 200.414 94.2008 197.791L164.645 159.285C169.796 156.469 173 151.067 173 145.196L173 56.8037C173 50.9334 169.796 45.5311 164.645 42.7154L94.2008 4.2094C89.402 1.58628 83.598 1.58629 78.7991 4.20941Z"
            fill="#F7FAFC" />
        <g filter="url(#filter0_d)">
            <ellipse cx="86.2155" cy="100.624" rx="51.3946" ry="51.6411" stroke="white" stroke-width="8.0625"
                stroke-linecap="round" stroke-linejoin="round" />
        </g>
        <path
            d="M99.5786 144.635C97.0815 139.757 94.6937 135.269 93.2114 132.3C89.2716 124.372 85.312 113.196 87.1127 105.989C87.441 104.679 83.4018 57.4955 80.5465 55.976C77.3728 54.2766 70.4783 52.0374 66.9067 51.4376C64.4195 51.0377 63.8524 51.7375 62.8078 51.8974C63.7927 51.9974 68.4786 54.3166 69.3839 54.4465C68.4786 55.0663 65.8024 54.4265 64.0912 55.1863C63.2256 55.5861 62.5789 57.0656 62.5988 57.7654C67.4738 57.2656 75.0946 57.7554 79.6113 59.7647C76.0198 60.1746 70.5678 60.6344 68.2199 61.874C61.4149 65.4727 58.4104 73.8998 60.2012 83.9963C61.982 94.0728 69.8714 130.83 72.3885 143.106C74.8956 155.372 103.737 152.802 99.5686 144.635H99.5786Z"
            fill="#D5D7D8" />
        <path
            d="M103.2 145.825C100.205 139.857 97.1511 134.149 95.3802 130.61C91.4305 122.673 87.4908 111.507 89.2816 104.299C89.6198 102.99 89.6198 97.6315 90.7042 96.9217C99.0712 91.4236 98.4743 96.7318 101.837 94.2726C103.568 93.0031 104.951 91.4736 105.558 89.3743C107.707 81.7969 102.573 68.6115 96.8228 62.8435C94.9524 60.9642 92.0871 59.7846 88.8438 59.1648C87.6002 57.4454 85.5906 55.8059 82.7452 54.2765C77.1648 51.3392 70.7778 50.3275 64.5687 51.3975C65.5636 51.4974 67.812 53.5367 68.7174 53.6667C67.3444 54.6064 63.6932 54.4864 63.7131 56.5657C68.6079 56.0659 73.9604 56.8456 78.4772 58.8649C74.8956 59.2647 71.5528 60.1644 69.2148 61.404C62.3899 65.0028 60.5991 72.2103 62.3899 82.3068C64.1907 92.4033 72.0801 129.171 74.5872 141.416C77.1042 153.672 106.921 153.212 103.21 145.825H103.2Z"
            fill="white" />
        <path
            d="M74.0499 86.6053C76.1323 86.6053 77.8205 84.909 77.8205 82.8166C77.8205 80.7241 76.1323 79.0279 74.0499 79.0279C71.9675 79.0279 70.2793 80.7241 70.2793 82.8166C70.2793 84.909 71.9675 86.6053 74.0499 86.6053Z"
            fill="#2D4F8E" />
        <path
            d="M75.7313 82.5374C76.2697 82.5374 76.7063 82.0986 76.7063 81.5574C76.7063 81.0161 76.2697 80.5774 75.7313 80.5774C75.1928 80.5774 74.7563 81.0161 74.7563 81.5574C74.7563 82.0986 75.1928 82.5374 75.7313 82.5374Z"
            fill="white" />
        <path
            d="M99.2403 83.8162C101.026 83.8162 102.474 82.3617 102.474 80.5674C102.474 78.7731 101.026 77.3185 99.2403 77.3185C97.4546 77.3185 96.007 78.7731 96.007 80.5674C96.007 82.3617 97.4546 83.8162 99.2403 83.8162Z"
            fill="#2D4F8E" />
        <path
            d="M100.683 80.328C101.144 80.328 101.519 79.952 101.519 79.488C101.519 79.0241 101.144 78.648 100.683 78.648C100.221 78.648 99.8472 79.0241 99.8472 79.488C99.8472 79.952 100.221 80.328 100.683 80.328Z"
            fill="white" />
        <path
            d="M75.1344 71.8504C75.1344 71.8504 72.289 70.5509 69.5332 72.3003C66.7773 74.0396 66.8768 75.819 66.8768 75.819C66.8768 75.819 65.4144 72.5402 69.3143 70.9307C73.2242 69.3313 75.1344 71.8504 75.1344 71.8504V71.8504Z"
            fill="url(#paint0_linear)" />
        <path
            d="M101.19 71.5914C101.19 71.5914 99.1508 70.4214 97.559 70.4414C94.3057 70.4814 93.4203 71.9214 93.4203 71.9214C93.4203 71.9214 93.9675 68.4814 98.1261 69.1714C98.794 69.2941 99.4221 69.5787 99.956 70.0003C100.49 70.422 100.914 70.9681 101.19 71.5914Z"
            fill="url(#paint1_linear)" />
        <path
            d="M85.5906 97.4215C85.9686 95.1223 91.8583 90.7938 96.0368 90.5239C100.215 90.264 101.509 90.324 104.991 89.4843C108.483 88.6546 117.467 86.4054 119.944 85.2458C122.431 84.0962 132.977 85.8156 125.545 89.9841C122.332 91.7935 113.666 95.1123 107.468 96.9717C101.28 98.831 97.5291 95.1923 95.4697 98.2512C93.8381 100.68 95.1414 104.009 102.533 104.699C112.522 105.629 122.093 100.181 123.147 103.08C124.202 105.979 114.571 109.577 108.702 109.697C102.832 109.807 91.0127 105.799 89.2418 104.559C87.4609 103.329 85.1031 100.43 85.5906 97.4215V97.4215Z"
            fill="#FDD20A" />
        <path
            d="M90.1073 127.711C90.1073 127.711 76.0794 120.184 75.8506 123.233C75.6119 126.292 75.8506 138.737 77.4822 139.677C79.1238 140.617 90.8136 133.579 90.8136 133.579L90.1172 127.701L90.1073 127.711ZM95.4796 127.231C95.4796 127.231 105.07 119.944 107.179 120.414C109.279 120.893 109.746 135.918 107.876 136.638C106.005 137.338 95.0419 132.829 95.0419 132.829L95.4896 127.231H95.4796Z"
            fill="#65BC46" />
        <path
            d="M86.7148 128.501C86.7148 133.429 86.0084 135.548 88.1076 136.018C90.2168 136.488 94.1863 136.018 95.5991 135.078C96.9919 134.139 95.8279 127.801 95.3603 126.621C94.8927 125.442 86.7048 126.381 86.7048 128.501H86.7148Z"
            fill="#43A244" />
        <path
            d="M87.6102 127.411C87.6102 132.339 86.9038 134.449 89.003 134.919C91.1022 135.398 95.0718 134.919 96.4845 133.979C97.8873 133.039 96.7233 126.701 96.2557 125.522C95.7881 124.342 87.6002 125.292 87.6002 127.401L87.6102 127.411Z"
            fill="#65BC46" />
    </g>
    <defs>
        <filter id="filter0_d" x="-5.21039" y="12.9518" width="182.852" height="183.345" filterUnits="userSpaceOnUse"
            color-interpolation-filters="sRGB">
            <feFlood flood-opacity="0" result="BackgroundImageFix" />
            <feColorMatrix in="SourceAlpha" type="matrix" values="0 0 0 0 0 0 0 0 0 0 0 0 0 0 0 0 0 0 127 0" />
            <feOffset dy="4" />
            <feGaussianBlur stdDeviation="18" />
            <feColorMatrix type="matrix" values="0 0 0 0 1 0 0 0 0 1 0 0 0 0 1 0 0 0 0.2 0" />
            <feBlend mode="normal" in2="BackgroundImageFix" result="effect1_dropShadow" />
            <feBlend mode="normal" in="SourceGraphic" in2="effect1_dropShadow" result="shape" />
        </filter>
        <linearGradient id="paint0_linear" x1="66.6082" y1="73.11" x2="75.1344" y2="73.11"
            gradientUnits="userSpaceOnUse">
            <stop offset="0.01" stop-color="#6176B9" />
            <stop offset="0.69" stop-color="#394A9F" />
        </linearGradient>
        <linearGradient id="paint1_linear" x1="93.4203" y1="70.5014" x2="101.19" y2="70.5014"
            gradientUnits="userSpaceOnUse">
            <stop offset="0.01" stop-color="#6176B9" />
            <stop offset="0.69" stop-color="#394A9F" />
        </linearGradient>
        <clipPath id="clip0">
            <rect width="173" height="202" fill="white" />
        </clipPath>
    </defs>
</svg>