<?xml version="1.0" standalone="no"?>
<!DOCTYPE svg PUBLIC "-//W3C//DTD SVG 20010904//EN"
 "http://www.w3.org/TR/2001/REC-SVG-20010904/DTD/svg10.dtd">
<svg version="1.0" xmlns="http://www.w3.org/2000/svg"
 width="785.000000pt" height="785.000000pt" viewBox="0 0 785.000000 785.000000"
 preserveAspectRatio="xMidYMid meet">
<metadata>
Created by potrace 1.14, written by Peter Selinger 2001-2017
</metadata>
<g transform="translate(0.000000,785.000000) scale(0.100000,-0.100000)"
fill="#000000" stroke="none">
<path d="M3897 7754 c-1 -1 -27 -4 -57 -7 -69 -8 -169 -40 -237 -78 -96 -53
-188 -103 -338 -184 -38 -21 -95 -51 -125 -68 -30 -16 -80 -43 -110 -60 -30
-16 -74 -40 -98 -53 -23 -13 -86 -47 -140 -75 -53 -29 -109 -60 -124 -71 -14
-10 -29 -18 -32 -18 -6 0 -571 -306 -631 -342 -16 -9 -44 -24 -60 -31 -17 -8
-67 -35 -110 -59 -44 -25 -116 -65 -160 -88 -44 -23 -98 -53 -120 -65 -54 -30
-126 -69 -275 -150 -69 -37 -149 -80 -177 -96 -107 -58 -169 -93 -213 -116
-67 -37 -109 -70 -168 -132 -66 -69 -108 -142 -144 -246 l-27 -80 2 -1820 2
-1820 27 -73 c55 -152 155 -275 284 -349 64 -37 104 -59 259 -143 33 -18 87
-47 120 -65 319 -174 561 -306 670 -365 44 -23 93 -50 110 -60 16 -9 66 -36
110 -60 280 -151 502 -272 515 -280 8 -5 47 -26 85 -46 39 -20 75 -40 80 -44
6 -4 60 -33 120 -65 61 -32 124 -66 140 -76 17 -11 39 -23 51 -28 12 -5 63
-33 115 -62 52 -28 128 -70 169 -92 41 -22 109 -59 150 -81 69 -38 134 -66
218 -94 18 -6 86 -9 155 -7 168 4 181 8 527 198 91 49 189 103 218 118 28 16
76 42 105 58 69 38 397 216 467 254 30 16 84 45 120 65 36 19 79 42 95 52 17
10 66 37 110 60 183 98 211 113 240 130 17 10 62 34 100 55 39 21 93 50 120
65 28 15 82 44 120 65 39 21 84 45 100 55 17 10 75 41 130 70 55 29 105 56
110 60 6 4 46 26 90 50 91 48 174 94 289 157 43 24 80 43 82 43 2 0 25 14 51
32 110 74 206 201 255 338 l23 65 2 1805 c3 1792 3 1806 -18 1884 -31 122 -84
214 -169 297 -60 58 -119 96 -295 191 -77 42 -167 91 -200 109 -33 18 -85 46
-115 62 -30 16 -73 39 -95 52 -44 25 -110 60 -230 125 -175 94 -261 141 -275
150 -8 5 -35 19 -60 31 -25 13 -65 35 -90 49 -25 15 -83 47 -130 72 -47 25
-105 57 -130 71 -25 13 -196 106 -380 206 -184 100 -344 187 -355 193 -25 14
-302 166 -405 221 -152 82 -207 107 -275 122 -59 13 -161 25 -168 19z"/>
</g>
</svg>
